<svg width="48" height="49" viewBox="0 0 48 49" fill="none" xmlns="http://www.w3.org/2000/svg">
<path d="M48 24.4199C48 37.6748 37.2548 48.4199 24 48.4199C10.7452 48.4199 0 37.6748 0 24.4199C0 11.1651 10.7452 0.419922 24 0.419922C37.2548 0.419922 48 11.1651 48 24.4199Z" fill="url(#paint0_linear_2001_4372)"/>
<path d="M28.6752 25.8824L27.1863 22.8842L25.542 26.1621L26.0718 27.2287L26.0846 27.2566C26.4605 28.058 26.654 28.9357 26.651 29.8241C26.6481 31.4089 26.0298 32.9279 24.9316 34.0484C23.8334 35.1688 22.3448 35.7993 20.7919 35.8018H20.6604C19.132 35.7654 17.6781 35.1213 16.6082 34.0068C15.5384 32.8923 14.9373 31.3955 14.9329 29.8353C14.9305 28.9455 15.1247 28.0666 15.5011 27.2641L19.9205 18.4L20.1799 17.8835L20.7992 16.6399L22.4435 13.375L20.7992 10.0711L12.8868 25.9346C12.2447 27.3013 11.9533 28.812 12.0398 30.325C12.1262 31.8381 12.5878 33.3039 13.3812 34.5852C14.1746 35.8663 15.2737 36.9209 16.5757 37.65C17.8776 38.3791 19.3396 38.7589 20.8247 38.7536C22.3097 38.7484 23.7691 38.3583 25.0661 37.6199C26.363 36.8817 27.455 35.8193 28.2396 34.5325C29.0242 33.2457 29.4759 31.7766 29.552 30.263C29.6283 28.7494 29.3265 27.2408 28.6752 25.8787V25.8824Z" fill="white"/>
<path d="M35.0747 25.8824L27.2079 10.0654L23.9998 16.4962L22.3555 19.7778L19.2789 25.9439C18.9326 26.6793 18.6868 27.4597 18.5482 28.2633C18.5167 28.5301 18.5008 28.7984 18.5007 29.067C18.5034 30.3422 18.9054 31.5831 19.6478 32.6088C20.3902 33.6345 21.4343 34.3913 22.6277 34.7688C21.7344 33.2268 20.4573 30.3069 21.8969 27.2509L23.8828 23.2683L23.9888 23.0538L25.6331 19.7704L27.2006 16.6249L32.4713 27.2248C33.0031 28.4422 33.2312 29.7749 33.1354 31.1043C33.0395 32.4335 32.6225 33.7178 31.9218 34.8426C31.221 35.9673 30.2583 36.8974 29.1195 37.5499C27.9807 38.2024 26.7013 38.5569 25.3956 38.5818C27.0041 38.9281 28.6755 38.806 30.2193 38.2294C31.763 37.6529 33.1169 36.6451 34.1265 35.321C35.1361 33.9969 35.7606 32.4099 35.9289 30.741C36.0972 29.0721 35.8025 27.3885 35.0784 25.8824H35.0747Z" fill="white"/>
<defs>
<linearGradient id="paint0_linear_2001_4372" x1="23.9987" y1="48.4538" x2="23.9987" y2="0.404319" gradientUnits="userSpaceOnUse">
<stop stop-color="#67CDF5"/>
<stop offset="0.13" stop-color="#4EC0ED"/>
<stop offset="0.37" stop-color="#26AAE1"/>
<stop offset="0.46" stop-color="#27A3DC"/>
<stop offset="0.6" stop-color="#288ECD"/>
<stop offset="0.77" stop-color="#2B6DB6"/>
<stop offset="0.97" stop-color="#2E3F95"/>
<stop offset="1" stop-color="#2F368F"/>
</linearGradient>
</defs>
</svg>
