<svg width="16" height="17" viewBox="0 0 16 17" fill="none" xmlns="http://www.w3.org/2000/svg">
<path d="M12.1465 5.81358C12.193 5.76713 12.2481 5.73028 12.3088 5.70513C12.3695 5.67999 12.4346 5.66705 12.5003 5.66705C12.566 5.66705 12.631 5.67999 12.6917 5.70513C12.7524 5.73028 12.8076 5.76713 12.854 5.81358C12.9005 5.86004 12.9373 5.91519 12.9625 5.97588C12.9876 6.03658 13.0006 6.10163 13.0006 6.16733C13.0006 6.23303 12.9876 6.29808 12.9625 6.35878C12.9373 6.41948 12.9005 6.47463 12.854 6.52108L7.85403 11.5211C7.80759 11.5676 7.75245 11.6044 7.69175 11.6296C7.63105 11.6548 7.56599 11.6677 7.50028 11.6677C7.43457 11.6677 7.36951 11.6548 7.30881 11.6296C7.24811 11.6044 7.19296 11.5676 7.14653 11.5211L2.14653 6.52108C2.05271 6.42726 2 6.30001 2 6.16733C2 6.03465 2.05271 5.9074 2.14653 5.81358C2.24035 5.71976 2.3676 5.66705 2.50028 5.66705C2.63296 5.66705 2.76021 5.71976 2.85403 5.81358L7.50028 10.4605L12.1465 5.81358Z" fill="#255988"/>
</svg>
