<svg width="17" height="16" viewBox="0 0 17 16" fill="none" xmlns="http://www.w3.org/2000/svg">
<path opacity="0.5" d="M2.8701 9.50479C2.39112 7.26957 2.15163 6.15196 2.752 5.40931C3.35236 4.66667 4.49535 4.66667 6.78131 4.66667H10.2187C12.5047 4.66667 13.6477 4.66667 14.248 5.40931C14.8484 6.15196 14.6089 7.26957 14.13 9.50478L13.8442 10.8381C13.5196 12.3531 13.3573 13.1107 12.8072 13.5553C12.2572 14 11.4825 14 9.93303 14L7.06702 14C5.51759 14 4.74288 14 4.19283 13.5553C3.64278 13.1107 3.48046 12.3531 3.15581 10.8381L2.8701 9.50479Z" fill="#255988"/>
<path d="M5.83331 7.5C5.55717 7.5 5.33331 7.72386 5.33331 8C5.33331 8.27614 5.55717 8.5 5.83331 8.5H11.1666C11.4428 8.5 11.6666 8.27614 11.6666 8C11.6666 7.72386 11.4428 7.5 11.1666 7.5L5.83331 7.5Z" fill="#255988"/>
<path d="M6.66665 10C6.66665 9.72386 6.8905 9.5 7.16665 9.5H9.83331C10.1095 9.5 10.3333 9.72386 10.3333 10C10.3333 10.2761 10.1095 10.5 9.83331 10.5H7.16665C6.8905 10.5 6.66665 10.2761 6.66665 10Z" fill="#255988"/>
<path fill-rule="evenodd" clip-rule="evenodd" d="M10.2764 1.55279C10.5234 1.42929 10.8237 1.5294 10.9472 1.77639L12.9472 5.77639C13.0707 6.02338 12.9706 6.32372 12.7236 6.44721C12.4766 6.57071 12.1763 6.4706 12.0528 6.22361L10.0528 2.22361C9.92928 1.97662 10.0294 1.67628 10.2764 1.55279Z" fill="#255988"/>
<path fill-rule="evenodd" clip-rule="evenodd" d="M6.72362 1.55279C6.47663 1.42929 6.17629 1.5294 6.0528 1.77639L4.0528 5.77639C3.9293 6.02338 4.02942 6.32372 4.27641 6.44721C4.5234 6.57071 4.82373 6.4706 4.94723 6.22361L6.94723 2.22361C7.07072 1.97662 6.97061 1.67628 6.72362 1.55279Z" fill="#255988"/>
</svg>
