<svg width="93" height="25" viewBox="0 0 93 25" fill="none" xmlns="http://www.w3.org/2000/svg">
<g clip-path="url(#clip0_201_5675)">
<path d="M25.8846 13.5526C25.8846 10.8419 27.7973 8.63788 30.508 8.63788C33.5227 8.63788 35.0427 11.0066 35.0427 13.7299C35.0427 13.8566 35.0427 14.2366 35.0047 14.3253H28.1013C28.3167 15.8453 29.4187 16.6939 30.812 16.6939C31.876 16.6939 32.636 16.3139 33.358 15.5539L34.6247 16.6939C33.738 17.7579 32.5094 18.48 30.7614 18.48C27.9493 18.518 25.8846 16.5293 25.8846 13.5526ZM32.826 12.9192C32.6994 11.5259 31.8507 10.4239 30.4573 10.4239C29.14 10.4239 28.2153 11.4372 28 12.9192H32.826ZM35.5367 13.6033C35.5367 10.9306 37.6141 8.68855 40.4134 8.68855C42.1994 8.68855 43.3014 9.37256 44.1881 10.2972L42.8328 11.7412C42.1488 11.0572 41.4774 10.5506 40.3754 10.5506C38.8047 10.5506 37.6647 11.9059 37.6647 13.6033C37.6647 15.3006 38.8047 16.6559 40.5021 16.6559C41.5154 16.6559 42.2881 16.1873 42.9594 15.4653L44.2768 16.7319C43.3394 17.7453 42.2374 18.518 40.4134 18.518C37.5761 18.518 35.5367 16.3139 35.5367 13.6033ZM44.2768 13.6033C44.2768 10.8926 46.4428 8.68855 49.3181 8.68855C52.2062 8.68855 54.3215 10.8926 54.3215 13.6033C54.3215 16.2759 52.1555 18.518 49.2802 18.518C46.3921 18.518 44.2768 16.3139 44.2768 13.6033ZM52.1555 13.6033C52.1555 11.9439 50.9648 10.5506 49.2675 10.5506C47.5321 10.5506 46.4301 11.9059 46.4301 13.6033C46.4301 15.2626 47.6208 16.6559 49.3181 16.6559C51.0535 16.6053 52.1555 15.2499 52.1555 13.6033ZM54.5369 17.0739L55.5122 15.5919C56.5255 16.3519 57.6275 16.7319 58.6029 16.7319C59.5402 16.7319 60.0849 16.3519 60.0849 15.6679C60.0849 14.9839 59.1982 14.7306 58.1342 14.4393C58.0962 14.4393 58.0075 14.4013 57.9695 14.4013C56.5762 13.9833 55.0435 13.4259 55.0435 11.5639C55.0435 9.77789 56.5255 8.67588 58.3876 8.67588C59.5782 8.67588 60.8449 9.09389 61.8582 9.73989L61.0096 11.2599C60.1229 10.7026 59.1476 10.3732 58.3369 10.3732C57.4882 10.3732 57.0195 10.7532 57.0195 11.3486C57.0195 11.9819 57.9062 12.2859 58.9702 12.6152C59.0082 12.6152 59.0969 12.6532 59.1349 12.6532C60.4902 13.0712 62.0609 13.7173 62.0609 15.4526C62.0609 17.4413 60.5409 18.4166 58.5396 18.4166C57.1589 18.4673 55.6769 17.9606 54.5369 17.0739ZM62.5042 13.6033C62.5042 10.8926 64.6703 8.68855 67.5456 8.68855C70.4336 8.68855 72.549 10.8926 72.549 13.6033C72.549 16.2759 70.383 18.518 67.5076 18.518C64.6196 18.518 62.5042 16.3139 62.5042 13.6033ZM70.383 13.6033C70.383 11.9439 69.1923 10.5506 67.4949 10.5506C65.7596 10.5506 64.6576 11.9059 64.6576 13.6033C64.6576 15.2626 65.8483 16.6559 67.5456 16.6559C69.281 16.6053 70.383 15.2499 70.383 13.6033ZM73.9043 10.7152H72.7136V8.89122H73.9043V8.20722C73.9043 7.14321 74.411 4.81252 78.5277 4.81252V6.67454C77.7677 6.67454 76.0323 6.67454 76.0323 8.37188V8.87855H78.5277V10.6646H76.0703V18.252H73.9043V10.7152ZM79.8324 15.6806V6.73787C80.339 6.82654 81.5297 7.07987 81.9984 7.42188V8.90389H83.4424V10.6899H81.9984V15.3133C81.9984 16.1619 82.4164 16.5039 83.1384 16.5039C83.6071 16.5039 84.0251 16.3773 84.4937 16.1619V17.948C83.9364 18.2393 83.3537 18.4166 82.5431 18.4166C80.985 18.4293 79.8324 17.7579 79.8324 15.6806ZM26.594 21.3933H26.936L27.5313 23.2173L28.1267 21.3933H28.418L29.0133 23.2173L29.6087 21.3933H29.9507L29.14 23.686H28.8487L28.2533 21.9L27.658 23.686H27.3667L26.594 21.3933ZM29.9887 22.964C29.9887 22.4953 30.3687 22.242 30.964 22.242C31.2554 22.242 31.4707 22.28 31.648 22.3307V22.242C31.648 21.862 31.3947 21.6466 30.964 21.6466C30.7107 21.6466 30.4954 21.7353 30.28 21.8113L30.1913 21.558C30.4447 21.4313 30.66 21.3426 31.002 21.3426C31.344 21.3426 31.5594 21.4313 31.724 21.596C31.8887 21.7606 31.9774 21.976 31.9774 22.28V23.6353H31.6354V23.2933C31.4707 23.5087 31.2174 23.6733 30.8247 23.6733C30.4193 23.686 29.9887 23.4327 29.9887 22.964ZM31.648 22.7993V22.584C31.4834 22.546 31.268 22.4953 30.964 22.4953C30.546 22.4953 30.28 22.66 30.28 22.964C30.28 23.268 30.5333 23.4327 30.8374 23.4327C31.306 23.3947 31.648 23.1793 31.648 22.7993ZM32.4967 23.0527V21.6973H32.2054V21.406H32.4967V20.722H32.8387V21.406H33.5607V21.6973H32.8387V23.0147C32.8387 23.268 33.0034 23.3947 33.2187 23.3947C33.3454 23.3947 33.434 23.3567 33.5607 23.306V23.5973C33.434 23.6353 33.3074 23.686 33.1427 23.686C32.75 23.686 32.4967 23.4707 32.4967 23.0527ZM34.7387 23.3947C35.0301 23.3947 35.2454 23.268 35.4607 23.0527L35.6761 23.2173C35.4607 23.4707 35.1694 23.6353 34.7387 23.6353C34.1054 23.6353 33.5987 23.1667 33.5987 22.4447C33.5987 21.8113 34.0674 21.254 34.7007 21.254C35.3847 21.254 35.7647 21.8113 35.7647 22.4447V22.5713H33.9407C33.9787 23.1413 34.3587 23.3947 34.7387 23.3947ZM35.3721 22.3686C35.3341 21.9506 35.0807 21.6086 34.65 21.6086C34.27 21.6086 33.966 21.9506 33.928 22.3686H35.3721ZM36.0561 21.3933H36.3981V21.9886C36.5627 21.6086 36.9047 21.3553 37.3354 21.3553V21.7353H37.2974C36.7907 21.7353 36.4107 22.0773 36.4107 22.7487V23.6353H36.0687C36.0561 23.648 36.0561 21.3933 36.0561 21.3933ZM38.5894 21.3933H38.9314V21.862C39.0961 21.6086 39.4001 21.3553 39.7801 21.3553C40.3374 21.3553 40.8441 21.7733 40.8441 22.546C40.8441 23.268 40.2868 23.7367 39.7801 23.7367C39.3621 23.7367 39.0961 23.5213 38.9314 23.268V24.408H38.5894V21.3933ZM40.5401 22.4953C40.5401 21.938 40.1601 21.6086 39.7294 21.6086C39.2987 21.6086 38.9187 21.9506 38.9187 22.4953C38.9187 23.04 39.2987 23.382 39.7294 23.382C40.1601 23.382 40.5401 23.0527 40.5401 22.4953ZM41.2241 21.3933H41.5661V21.9886C41.7308 21.6086 42.0728 21.3553 42.5034 21.3553V21.7353H42.4654C41.9588 21.7353 41.5788 22.0773 41.5788 22.7487V23.6353H41.2241C41.2241 23.648 41.2241 21.3933 41.2241 21.3933ZM42.4908 22.4953C42.4908 21.862 42.9974 21.3046 43.6814 21.3046C44.3654 21.3046 44.8721 21.862 44.8721 22.4953C44.8721 23.1287 44.3654 23.686 43.6814 23.686C42.9594 23.686 42.4908 23.1413 42.4908 22.4953ZM44.4921 22.4953C44.4921 22.0266 44.1121 21.6086 43.6434 21.6086C43.1368 21.6086 42.8328 21.9886 42.8328 22.4953C42.8328 23.002 43.1748 23.382 43.6814 23.382C44.1501 23.3947 44.4921 23.0147 44.4921 22.4953ZM45.2015 21.6973H44.9101V21.406H45.2015V21.1906C45.2015 20.9373 45.2901 20.722 45.4168 20.5953C45.5435 20.4686 45.7081 20.4306 45.8855 20.4306C46.0628 20.4306 46.1388 20.4306 46.2655 20.4686V20.76C46.1388 20.722 46.0501 20.722 45.9235 20.722C45.6701 20.722 45.5435 20.8866 45.5435 21.1906V21.3553H46.2655V21.6466H45.5435V23.5973H45.2015V21.6973ZM47.3675 23.3947C47.6588 23.3947 47.8741 23.268 48.0895 23.0527L48.3048 23.2173C48.0895 23.4707 47.7981 23.6353 47.3675 23.6353C46.7341 23.6353 46.2275 23.1667 46.2275 22.4447C46.2275 21.8113 46.6961 21.254 47.2915 21.254C47.9755 21.254 48.3555 21.8113 48.3555 22.4447V22.5713H46.5695C46.6075 23.1413 46.9875 23.3947 47.3675 23.3947ZM48.0515 22.3686C48.0135 21.9506 47.7981 21.6086 47.3295 21.6086C46.9495 21.6086 46.6455 21.9506 46.6075 22.3686H48.0515ZM48.4695 23.344L48.6341 23.0907C48.8875 23.2553 49.1408 23.382 49.3941 23.382C49.6475 23.382 49.8628 23.2553 49.8628 23.002C49.8628 22.7867 49.6095 22.7107 49.3055 22.622C48.9635 22.5333 48.5455 22.4066 48.5455 21.9886C48.5455 21.6086 48.8875 21.3553 49.3055 21.3553C49.5588 21.3553 49.9008 21.444 50.1162 21.6086L49.9515 21.862C49.7362 21.7353 49.4828 21.6466 49.2675 21.6466C49.0141 21.6466 48.8495 21.7733 48.8495 21.9886C48.8495 22.204 49.1408 22.28 49.4448 22.3686C49.7868 22.4573 50.1668 22.622 50.1668 23.002C50.1668 23.42 49.8248 23.686 49.3562 23.686C49.1028 23.686 48.7228 23.5593 48.4695 23.344ZM50.3822 23.344L50.5468 23.0907C50.8002 23.2553 51.0535 23.382 51.3068 23.382C51.5602 23.382 51.7755 23.2553 51.7755 23.002C51.7755 22.7867 51.5222 22.7107 51.2182 22.622C50.8762 22.5333 50.4582 22.4066 50.4582 21.9886C50.4582 21.6086 50.8002 21.3553 51.2182 21.3553C51.4715 21.3553 51.8135 21.444 52.0288 21.6086L51.8642 21.862C51.6488 21.7353 51.3955 21.6466 51.1802 21.6466C50.9268 21.6466 50.7622 21.7733 50.7622 21.9886C50.7622 22.204 51.0535 22.28 51.3575 22.3686C51.6995 22.4573 52.0795 22.622 52.0795 23.002C52.0795 23.42 51.7375 23.686 51.2688 23.686C50.9775 23.686 50.6355 23.5593 50.3822 23.344ZM52.4088 20.5066H52.7888V20.8866H52.4088V20.5066ZM52.4088 21.3933H52.7508V23.6353H52.4088V21.3933ZM53.0928 22.4953C53.0928 21.862 53.5995 21.3046 54.2835 21.3046C54.9675 21.3046 55.4742 21.862 55.4742 22.4953C55.4742 23.1287 54.9675 23.686 54.2835 23.686C53.5995 23.686 53.0928 23.1413 53.0928 22.4953ZM55.1195 22.4953C55.1195 22.0266 54.7395 21.6086 54.2709 21.6086C53.7642 21.6086 53.4602 21.9886 53.4602 22.4953C53.4602 23.002 53.8022 23.382 54.3088 23.382C54.7902 23.3947 55.1195 23.0147 55.1195 22.4953ZM55.7655 21.3933H56.1075V21.7733C56.2342 21.52 56.4875 21.3553 56.8675 21.3553C57.4249 21.3553 57.7162 21.7353 57.7162 22.242V23.6353H57.3742V22.318C57.3742 21.9 57.1589 21.634 56.7409 21.634C56.3609 21.634 56.0569 21.9253 56.0569 22.356V23.6227H55.7149V21.3806C55.7149 21.3933 55.7655 21.3933 55.7655 21.3933ZM58.0075 22.964C58.0075 22.4953 58.3876 22.242 58.9829 22.242C59.2742 22.242 59.4896 22.28 59.6669 22.3307V22.242C59.6669 21.862 59.4136 21.6466 58.9829 21.6466C58.7296 21.6466 58.5142 21.7353 58.2989 21.8113L58.2102 21.558C58.4636 21.4313 58.7169 21.3426 59.0209 21.3426C59.3629 21.3426 59.5782 21.4313 59.7429 21.596C59.9076 21.7606 59.9962 21.976 59.9962 22.28V23.6353H59.6542V23.2933C59.4896 23.5087 59.2362 23.6733 58.8436 23.6733C58.4255 23.686 58.0075 23.4327 58.0075 22.964ZM59.6669 22.7993V22.584C59.5022 22.546 59.2869 22.4953 58.9829 22.4953C58.5649 22.4953 58.2989 22.66 58.2989 22.964C58.2989 23.268 58.5522 23.4327 58.8562 23.4327C59.3249 23.3947 59.6669 23.1793 59.6669 22.7993ZM60.4649 20.4686H60.8069V23.648H60.4649V20.4686ZM61.0602 23.344L61.2249 23.0907C61.4782 23.2553 61.7316 23.382 61.9849 23.382C62.2382 23.382 62.4536 23.2553 62.4536 23.002C62.4536 22.7867 62.2002 22.7107 61.8962 22.622C61.5542 22.5333 61.1362 22.4066 61.1362 21.9886C61.1362 21.6086 61.4782 21.3553 61.8962 21.3553C62.1496 21.3553 62.4916 21.444 62.7069 21.6086L62.5422 21.862C62.3269 21.7353 62.0736 21.6466 61.8582 21.6466C61.6049 21.6466 61.4402 21.7733 61.4402 21.9886C61.4402 22.204 61.7316 22.28 62.0356 22.3686C62.3776 22.4573 62.7576 22.622 62.7576 23.002C62.7576 23.42 62.4156 23.686 61.9469 23.686C61.6936 23.686 61.3136 23.5593 61.0602 23.344ZM25.6693 1.17716C24.8206 1.0125 23.934 0.923828 23.0473 0.923828H22.6673C14.9406 1.13916 8.70853 7.37121 8.50586 15.0853C8.92386 15.1233 9.31653 15.1233 9.73453 15.1233C10.4565 15.1233 11.1785 15.0346 11.9006 14.9586C12.8379 9.53722 17.1193 5.20519 22.5406 4.31852C21.6033 9.73989 17.3219 14.0719 11.9006 14.9586C11.7739 15.6806 11.7359 16.4026 11.7359 17.1246C11.7359 17.5426 11.7359 17.9733 11.7739 18.3533C19.4879 18.1886 25.682 11.9566 25.8846 4.19185V3.81185C25.9227 2.91251 25.834 2.02584 25.6693 1.17716ZM10.9632 23.686C11.6472 23.3947 12.2806 23.002 12.8252 22.4953C12.2299 21.2286 11.8879 19.8733 11.7232 18.3786H11.3432C10.4565 18.3786 9.5572 18.29 8.72119 18.1253C9.05053 20.1646 9.8612 22.0393 10.9632 23.686Z" fill="#F0F4FB"/>
</g>
<defs>
<clipPath id="clip0_201_5675">
<rect width="92.0244" height="23.4842" fill="white" transform="translate(0.487793 0.923828)"/>
</clipPath>
</defs>
</svg>
