<svg width="48" height="48" viewBox="0 0 48 48" fill="none" xmlns="http://www.w3.org/2000/svg">
<path fill-rule="evenodd" clip-rule="evenodd" d="M36 28C36 36.8366 28.8366 44 20 44C17.529 44 15.1888 43.4398 13.0995 42.4396C12.3814 42.0958 11.5679 41.9751 10.7988 42.1809L8.3467 42.837C6.41403 43.3541 4.64591 41.586 5.16302 39.6533L5.81911 37.2012C6.02489 36.4321 5.90419 35.6186 5.5604 34.9005C4.56015 32.8112 4 30.471 4 28C4 19.1634 11.1634 12 20 12C28.8366 12 36 19.1634 36 28ZM13 30C14.1046 30 15 29.1046 15 28C15 26.8954 14.1046 26 13 26C11.8954 26 11 26.8954 11 28C11 29.1046 11.8954 30 13 30ZM20 30C21.1046 30 22 29.1046 22 28C22 26.8954 21.1046 26 20 26C18.8954 26 18 26.8954 18 28C18 29.1046 18.8954 30 20 30ZM27 30C28.1046 30 29 29.1046 29 28C29 26.8954 28.1046 26 27 26C25.8954 26 25 26.8954 25 28C25 29.1046 25.8954 30 27 30Z" fill="#609E56"/>
<path opacity="0.6" d="M35.9675 29.0169C36.1833 28.9276 36.3962 28.8326 36.606 28.7322C37.1894 28.4528 37.8504 28.3548 38.4753 28.522L40.4676 29.055C42.0379 29.4752 43.4745 28.0386 43.0543 26.4683L42.5213 24.476C42.3541 23.8511 42.4522 23.1901 42.7315 22.6066C43.5442 20.9091 43.9993 19.0077 43.9993 17C43.9993 9.8203 38.179 4 30.9993 4C25.5792 4 20.9338 7.317 18.9824 12.0318C19.3187 12.0107 19.6577 12 19.9993 12C28.8359 12 35.9993 19.1634 35.9993 28C35.9993 28.3416 35.9886 28.6806 35.9675 29.0169Z" fill="#609E56"/>
</svg>
