<svg width="25" height="25" viewBox="0 0 25 25" fill="none" xmlns="http://www.w3.org/2000/svg">
<path d="M3.5 12.4113C3.5 18.0494 7.73896 20.7854 10.3986 21.9472C11.12 22.2623 11.4807 22.4199 12.5 22.4199V8.41992L3.5 11.4199V12.4113Z" fill="#255988"/>
<path opacity="0.5" d="M14.6014 21.9472C17.261 20.7854 21.5 18.0494 21.5 12.4113V11.4199L12.5 8.41992V22.4199C13.5193 22.4199 13.88 22.2623 14.6014 21.9472Z" fill="#255988"/>
<path opacity="0.5" d="M9.33772 3.22464L8.76491 3.42071C5.75832 4.44988 4.25503 4.96446 3.87752 5.50233C3.5 6.0402 3.5 7.63899 3.5 10.8366V11.4199L12.5 8.41992V2.41992C11.6886 2.41992 10.905 2.68816 9.33772 3.22464Z" fill="#255988"/>
<path d="M16.2351 3.42071L15.6623 3.22464C14.095 2.68816 13.3114 2.41992 12.5 2.41992V8.41992L21.5 11.4199V10.8366C21.5 7.63899 21.5 6.0402 21.1225 5.50233C20.745 4.96446 19.2417 4.44988 16.2351 3.42071Z" fill="#255988"/>
</svg>
