<svg width="25" height="25" viewBox="0 0 25 25" fill="none" xmlns="http://www.w3.org/2000/svg">
<path fill-rule="evenodd" clip-rule="evenodd" d="M11.6906 3.72826C11.4766 3.36119 10.8527 3.13857 10.2191 3.50072C9.58771 3.86155 9.47667 4.49759 9.687 4.85828L12.2127 9.1894C12.4213 9.54721 12.3004 10.0064 11.9426 10.2151C11.5848 10.4238 11.1255 10.3028 10.9169 9.94502L7.54934 4.17019C7.33528 3.80312 6.71147 3.5805 6.0778 3.94265C5.44644 4.30348 5.3354 4.93952 5.54573 5.30021L9.33422 11.7969C9.54288 12.1547 9.42196 12.6139 9.06414 12.8226C8.70632 13.0312 8.2471 12.9103 8.03844 12.5525L6.35467 9.66509C6.14061 9.29802 5.5168 9.0754 4.88313 9.43755C4.25177 9.79838 4.14073 10.4344 4.35106 10.7951L8.13955 17.2918C9.74849 20.0509 13.7188 20.9463 17.0858 19.022C20.4505 17.0991 21.6465 13.2576 20.0413 10.5049L17.5156 6.17374C17.3016 5.80667 16.6778 5.58405 16.0441 5.9462C15.4128 6.30703 15.3017 6.94307 15.512 7.30376L17.1958 10.1912C17.2966 10.364 17.3241 10.5699 17.2724 10.7631C17.2206 10.9563 17.0938 11.1209 16.9201 11.2201C15.3776 12.1017 14.9049 13.8062 15.5802 14.9642C15.7889 15.322 15.6679 15.7813 15.3101 15.9899C14.9523 16.1986 14.4931 16.0777 14.2844 15.7198C13.3717 14.1547 13.7405 12.27 14.9194 10.9379C15.249 10.5655 15.3618 10.0238 15.1113 9.59425L11.6906 3.72826Z" fill="#255988"/>
<g opacity="0.5">
<path fill-rule="evenodd" clip-rule="evenodd" d="M4.91333 18.279C5.27115 18.0703 5.73037 18.1912 5.93903 18.549C6.76589 19.967 8.02998 21.0393 9.58886 21.735C9.96711 21.9038 10.1369 22.3473 9.96807 22.7256C9.79925 23.1038 9.35576 23.2736 8.97751 23.1048C7.166 22.2963 5.6462 21.0246 4.64325 19.3047C4.43459 18.9468 4.55551 18.4876 4.91333 18.279Z" fill="#1C274C"/>
<path fill-rule="evenodd" clip-rule="evenodd" d="M19.4053 4.34186C18.3914 3.30638 16.9454 2.92444 15.5299 3.32722C15.1315 3.44058 14.7166 3.20951 14.6033 2.81111C14.4899 2.41271 14.721 1.99785 15.1194 1.88448C17.0576 1.33299 19.074 1.85952 20.4771 3.29242C20.7669 3.58838 20.7619 4.06323 20.4659 4.35302C20.17 4.64282 19.6951 4.63782 19.4053 4.34186Z" fill="#1C274C"/>
</g>
</svg>
