<svg width="25" height="25" viewBox="0 0 25 25" fill="none" xmlns="http://www.w3.org/2000/svg">
<path d="M17.0276 2.41992H7.97201C6.76919 2.41992 6.16778 2.41992 5.68448 2.71862C5.20117 3.01732 4.93221 3.55524 4.3943 4.63107L2.99068 8.17921C2.66639 8.99897 2.38266 9.96517 2.92854 10.6574C3.29476 11.1218 3.86244 11.4199 4.49978 11.4199C5.60435 11.4199 6.49978 10.5245 6.49978 9.41992C6.49978 10.5245 7.39522 11.4199 8.49978 11.4199C9.60435 11.4199 10.4998 10.5245 10.4998 9.41992C10.4998 10.5245 11.3952 11.4199 12.4998 11.4199C13.6044 11.4199 14.4998 10.5245 14.4998 9.41992C14.4998 10.5245 15.3952 11.4199 16.4998 11.4199C17.6044 11.4199 18.4998 10.5245 18.4998 9.41992C18.4998 10.5245 19.3952 11.4199 20.4998 11.4199C21.1371 11.4199 21.7048 11.1218 22.0711 10.6574C22.617 9.96517 22.3333 8.99897 22.009 8.17921L20.6054 4.63107C20.0674 3.55523 19.7985 3.01732 19.3152 2.71862C18.8319 2.41992 18.2305 2.41992 17.0276 2.41992Z" fill="#255988"/>
<path d="M10 21.6699V18.9199C10 17.9853 10 17.518 10.201 17.1699C10.3326 16.9419 10.522 16.7525 10.75 16.6209C11.0981 16.4199 11.5654 16.4199 12.5 16.4199C13.4346 16.4199 13.9019 16.4199 14.25 16.6209C14.478 16.7525 14.6674 16.9419 14.799 17.1699C15 17.518 15 17.9853 15 18.9199V21.6699H10Z" fill="#255988"/>
<path opacity="0.5" fill-rule="evenodd" clip-rule="evenodd" d="M4.5 11.4199C5.60447 11.4198 6.49978 10.5244 6.49978 9.41992C6.49978 10.5245 7.39521 11.4199 8.49978 11.4199C9.60435 11.4199 10.4998 10.5245 10.4998 9.41992C10.4998 10.5245 11.3952 11.4199 12.4998 11.4199C13.6044 11.4199 14.4998 10.5245 14.4998 9.41992C14.4998 10.5245 15.3952 11.4199 16.4998 11.4199C17.6044 11.4199 18.4998 10.5245 18.4998 9.41992C18.4998 10.5245 19.3952 11.4199 20.4998 11.4199L20.5 21.6699L15 21.6699V18.9199C15 17.9853 15 17.518 14.799 17.1699C14.6674 16.9419 14.478 16.7525 14.25 16.6209C13.9019 16.4199 13.4346 16.4199 12.5 16.4199C11.5654 16.4199 11.0981 16.4199 10.75 16.6209C10.522 16.7525 10.3326 16.9419 10.201 17.1699C10 17.518 10 17.9853 10 18.9199V21.6699L4.5 21.6699L4.5 11.4199Z" fill="#255988"/>
<path d="M15 21.6699H10L4.5 21.6699L2.5 21.6699C2.08579 21.6699 1.75 22.0057 1.75 22.4199C1.75 22.8341 2.08579 23.1699 2.5 23.1699H22.5C22.9142 23.1699 23.25 22.8341 23.25 22.4199C23.25 22.0057 22.9142 21.6699 22.5 21.6699L20.5 21.6699L15 21.6699Z" fill="#255988"/>
</svg>
