<svg width="25" height="25" viewBox="0 0 25 25" fill="none" xmlns="http://www.w3.org/2000/svg">
<path d="M10.5802 8.31704C11.6568 6.38563 12.1952 5.41992 13 5.41992C13.8048 5.41992 14.3432 6.38563 15.4198 8.31704L15.6984 8.81672C16.0043 9.36557 16.1573 9.63999 16.3958 9.82106C16.6343 10.0021 16.9314 10.0693 17.5255 10.2038L18.0664 10.3261C20.1571 10.7992 21.2025 11.0357 21.4512 11.8355C21.6999 12.6353 20.9872 13.4686 19.5619 15.1354L19.1932 15.5666C18.7881 16.0402 18.5856 16.277 18.4945 16.57C18.4034 16.863 18.434 17.1789 18.4953 17.8108L18.551 18.3862C18.7665 20.6099 18.8742 21.7218 18.2231 22.2161C17.572 22.7104 16.5932 22.2597 14.6357 21.3584L14.1292 21.1252C13.573 20.8691 13.2948 20.741 13 20.741C12.7052 20.741 12.427 20.8691 11.8708 21.1252L11.3643 21.3584C9.40677 22.2597 8.428 22.7104 7.77688 22.2161C7.12575 21.7218 7.2335 20.6099 7.44899 18.3862L7.50474 17.8108C7.56597 17.1789 7.59659 16.863 7.50548 16.57C7.41438 16.277 7.21186 16.0402 6.80683 15.5666L6.43808 15.1354C5.01276 13.4686 4.3001 12.6353 4.54881 11.8355C4.79751 11.0357 5.84288 10.7992 7.93361 10.3261L8.4745 10.2038C9.06862 10.0693 9.36568 10.0021 9.6042 9.82106C9.84272 9.63999 9.9957 9.36557 10.3016 8.81672L10.5802 8.31704Z" fill="#255988"/>
<path opacity="0.5" d="M5.36752 2.9205C5.39751 2.81472 5.58528 2.81408 5.61598 2.91966C5.75618 3.40177 6.01616 4.11439 6.40928 4.50487C6.80241 4.89535 7.51676 5.1505 7.99981 5.28744C8.10559 5.31743 8.10623 5.5052 8.00065 5.5359C7.51854 5.67611 6.80592 5.93608 6.41545 6.3292C6.02497 6.72233 5.76981 7.43669 5.63287 7.91973C5.60288 8.02552 5.41511 8.02615 5.38441 7.92057C5.24421 7.43846 4.98424 6.72585 4.59111 6.33537C4.19798 5.94489 3.48363 5.68974 3.00058 5.55279C2.8948 5.5228 2.89416 5.33504 2.99974 5.30433C3.48185 5.16413 4.19447 4.90416 4.58495 4.51103C4.97543 4.11791 5.23058 3.40355 5.36752 2.9205Z" fill="#38393B"/>
<path opacity="0.5" fill-rule="evenodd" clip-rule="evenodd" d="M19.5 3.66992C19.9142 3.66992 20.25 4.00571 20.25 4.41992V4.66992H20.5C20.9142 4.66992 21.25 5.00571 21.25 5.41992C21.25 5.83414 20.9142 6.16992 20.5 6.16992H20.25V6.41992C20.25 6.83414 19.9142 7.16992 19.5 7.16992C19.0858 7.16992 18.75 6.83414 18.75 6.41992V6.16992H18.5C18.0858 6.16992 17.75 5.83414 17.75 5.41992C17.75 5.00571 18.0858 4.66992 18.5 4.66992H18.75V4.41992C18.75 4.00571 19.0858 3.66992 19.5 3.66992Z" fill="#38393B"/>
</svg>
