<svg width="16" height="16" viewBox="0 0 16 16" fill="none" xmlns="http://www.w3.org/2000/svg">
<g clip-path="url(#clip0_2015_1132)">
<path fill-rule="evenodd" clip-rule="evenodd" d="M5.92372 2.24142C7.88553 0.363538 11.0576 0.363538 13.0194 2.24142C13.2189 2.43237 13.2258 2.74887 13.0348 2.94836C12.8439 3.14784 12.5274 3.15476 12.3279 2.96381C10.7528 1.45607 8.19033 1.45607 6.6152 2.96381L2.34574 7.05061C2.14626 7.24156 1.82975 7.23464 1.63881 7.03516C1.44786 6.83567 1.45478 6.51917 1.65426 6.32822L5.92372 2.24142ZM10.1777 4.30027C10.3687 4.10079 10.6852 4.09387 10.8847 4.28482C11.7219 5.08627 11.7219 6.39511 10.8847 7.19657L5.62408 12.2321C5.4246 12.423 5.10809 12.4161 4.91714 12.2166C4.72619 12.0171 4.73311 11.7006 4.93259 11.5097L10.1932 6.47417C10.6191 6.06648 10.6191 5.41491 10.1932 5.00721C9.99369 4.81626 9.98678 4.49975 10.1777 4.30027Z" fill="#255988"/>
<path opacity="0.5" d="M12.3276 2.96415C13.8904 4.46008 13.8904 6.87603 12.3276 8.37196L7.02889 13.444C6.0222 14.4076 4.38136 14.4076 3.37467 13.444C2.38032 12.4922 2.38032 10.9584 3.37467 10.0066L8.59714 5.00755C9.03539 4.58805 9.75461 4.58805 10.1929 5.00755C9.99358 4.81658 9.98684 4.5001 10.1777 4.30068C10.3653 4.10477 10.6739 4.09459 10.8738 4.27516C10.0482 3.49553 8.72709 3.49886 7.90565 4.28516L2.68319 9.28419C1.27748 10.6298 1.27748 12.8208 2.68319 14.1664C4.07656 15.5001 6.327 15.5001 7.72037 14.1664L13.0191 9.09435C14.9898 7.20789 14.9932 4.14195 13.0292 2.25146C13.2191 2.44328 13.2226 2.75261 13.0348 2.94877C12.8439 3.14825 12.5271 3.1551 12.3276 2.96415Z" fill="#255988"/>
</g>
<defs>
<clipPath id="clip0_2015_1132">
<rect width="16" height="16" fill="white"/>
</clipPath>
</defs>
</svg>
