<svg width="16" height="17" viewBox="0 0 16 17" fill="none" xmlns="http://www.w3.org/2000/svg">
<path fill-rule="evenodd" clip-rule="evenodd" d="M5.92372 2.66134C7.88553 0.78346 11.0576 0.78346 13.0194 2.66134C13.2189 2.85229 13.2258 3.1688 13.0348 3.36828C12.8439 3.56776 12.5274 3.57468 12.3279 3.38373C10.7528 1.876 8.19033 1.876 6.6152 3.38373L2.34574 7.47053C2.14626 7.66148 1.82975 7.65456 1.63881 7.45508C1.44786 7.25559 1.45478 6.93909 1.65426 6.74814L5.92372 2.66134ZM10.1777 4.72019C10.3687 4.52071 10.6852 4.51379 10.8847 4.70474C11.7219 5.50619 11.7219 6.81504 10.8847 7.61649L5.62408 12.652C5.4246 12.843 5.10809 12.836 4.91714 12.6366C4.72619 12.4371 4.73311 12.1206 4.93259 11.9296L10.1932 6.8941C10.6191 6.4864 10.6191 5.83483 10.1932 5.42713C9.99369 5.23618 9.98678 4.91968 10.1777 4.72019Z" fill="#255988"/>
<path opacity="0.5" d="M12.3276 3.38407C13.8904 4.88 13.8904 7.29595 12.3276 8.79188L7.02889 13.8639C6.0222 14.8275 4.38136 14.8275 3.37467 13.8639C2.38032 12.9121 2.38032 11.3783 3.37467 10.4265L8.59714 5.42747C9.03539 5.00797 9.75461 5.00797 10.1929 5.42747C9.99358 5.2365 9.98684 4.92002 10.1777 4.72061C10.3653 4.5247 10.6739 4.51451 10.8738 4.69508C10.0482 3.91545 8.72709 3.91878 7.90565 4.70508L2.68319 9.70411C1.27748 11.0497 1.27748 13.2407 2.68319 14.5863C4.07656 15.92 6.327 15.92 7.72037 14.5863L13.0191 9.51427C14.9898 7.62782 14.9932 4.56187 13.0292 2.67139C13.2191 2.8632 13.2226 3.17253 13.0348 3.36869C12.8439 3.56817 12.5271 3.57502 12.3276 3.38407Z" fill="#255988"/>
</svg>
