<svg width="126" height="43" viewBox="0 0 126 43" fill="none" xmlns="http://www.w3.org/2000/svg">
<path d="M19 23.1611L17.3456 19.8297L15.5186 23.4719L16.1073 24.6569L16.1215 24.688C16.5392 25.5784 16.7542 26.5536 16.7508 27.5408C16.7476 29.3016 16.0606 30.9895 14.8404 32.2345C13.6201 33.4794 11.9661 34.18 10.2407 34.1827H10.0946C8.39638 34.1422 6.78087 33.4266 5.59213 32.1882C4.4034 30.9499 3.73546 29.2868 3.73065 27.5532C3.72791 26.5646 3.9437 25.588 4.36197 24.6963L9.27241 14.8472L9.5607 14.2734L10.2488 12.8915L12.0758 9.26386L10.2488 5.59274L1.45711 23.2191C0.743753 24.7376 0.419956 26.4162 0.516052 28.0974C0.612074 29.7786 1.12496 31.4072 2.00647 32.8309C2.88805 34.2544 4.10934 35.4262 5.55596 36.2363C7.0025 37.0464 8.62704 37.4684 10.2771 37.4626C11.9272 37.4567 13.5487 37.0233 14.9898 36.2029C16.4309 35.3825 17.6442 34.2022 18.516 32.7723C19.3878 31.3426 19.8896 29.7102 19.9742 28.0284C20.0589 26.3466 19.7237 24.6704 19 23.157V23.1611Z" fill="url(#paint0_linear_2027_3163)"/>
<path d="M26.1106 23.161L17.3696 5.58643L13.805 12.7319L11.9781 16.3781L8.55958 23.2294C8.17482 24.0465 7.90163 24.9137 7.74761 25.8066C7.71269 26.1029 7.69501 26.401 7.69486 26.6995C7.6979 28.1164 8.1445 29.4952 8.96941 30.6349C9.79433 31.7746 10.9544 32.6154 12.2805 33.0349C11.2879 31.3216 9.8689 28.0772 11.4685 24.6817L13.6751 20.2564L13.7929 20.0182L15.6198 16.3698L17.3615 12.8748L23.2179 24.6527C23.8088 26.0053 24.0623 27.4861 23.9557 28.9632C23.8492 30.4401 23.3859 31.8671 22.6073 33.1169C21.8287 34.3666 20.759 35.4 19.4936 36.125C18.2283 36.8501 16.8068 37.2439 15.3559 37.2716C17.1431 37.6563 19.0003 37.5207 20.7156 36.8801C22.4309 36.2395 23.9353 35.1197 25.057 33.6485C26.1788 32.1772 26.8727 30.4139 27.0597 28.5595C27.2467 26.7052 26.9193 24.8345 26.1147 23.161H26.1106Z" fill="url(#paint1_linear_2027_3163)"/>
<path d="M49.6621 23.1436C49.6925 24.4608 49.5179 25.7744 49.1448 27.0358C48.8522 28.0108 48.355 28.9089 47.6878 29.6678C47.0589 30.3507 46.2725 30.862 45.4002 31.1548C43.4726 31.7745 41.405 31.7745 39.4774 31.1548C38.6128 30.8613 37.8347 30.3499 37.2154 29.6678C36.5503 28.9073 36.0534 28.0097 35.7583 27.0358C35.3908 25.7735 35.2199 24.46 35.252 23.1436L35.3285 16.3106C35.3285 15.2821 35.5981 14.5474 36.1372 14.1061C36.6763 13.665 37.4679 13.4457 38.5121 13.4483C38.4939 13.5523 38.4793 13.7047 38.4611 13.9129C38.4429 14.121 38.432 14.359 38.4247 14.6861C38.4174 15.0133 38.4247 15.4296 38.4247 15.9501V23.1436C38.3761 24.1064 38.4446 25.0717 38.6287 26.0172C38.7499 26.6764 39.0178 27.2983 39.4118 27.835C39.7493 28.2714 40.1998 28.6023 40.7122 28.7905C41.8536 29.1674 43.0823 29.1674 44.2237 28.7905C44.7361 28.6023 45.1866 28.2714 45.5241 27.835C45.9181 27.2983 46.186 26.6764 46.3072 26.0172C46.4904 25.0713 46.5674 24.1073 46.5367 23.1436L46.6096 16.3106C46.6096 15.2821 46.8791 14.5474 47.4182 14.1061C47.9573 13.6676 48.7514 13.4483 49.7932 13.4483C49.7932 13.5523 49.7604 13.7047 49.7421 13.9129C49.7239 14.121 49.713 14.359 49.7057 14.6861C49.6984 15.0133 49.7057 15.4296 49.7057 15.9501L49.6621 23.1436Z" fill="#255988"/>
<path d="M63.1393 30.5266C62.9852 30.6819 62.8155 30.8202 62.633 30.9393C62.4678 31.049 62.2905 31.1388 62.1048 31.2069C61.9109 31.2839 61.7047 31.3242 61.4966 31.3258C60.9133 31.3335 60.3506 31.1065 59.9302 30.6938C59.4774 30.2524 59.0709 29.7641 58.7173 29.2367L58.0617 28.2291L57.3804 27.1994C57.1619 26.8722 56.9616 26.5711 56.7867 26.296C56.6118 26.0209 56.4698 25.8165 56.3679 25.679C56.0983 25.902 55.8505 26.1138 55.6394 26.3108C55.428 26.508 55.2131 26.6827 55.0456 26.8127V28.876C55.0456 29.3891 55.0456 29.8128 55.0456 30.14C55.0456 30.4671 55.0675 30.7237 55.0857 30.9132C55.095 31.0676 55.112 31.2215 55.1366 31.3741C54.0925 31.3741 53.2959 31.1511 52.7471 30.7051C52.2007 30.2589 51.9275 29.5266 51.9275 28.5155L52.004 16.3182C52.004 15.2884 52.2626 14.5523 52.7872 14.1136C53.3117 13.675 54.0913 13.4557 55.1366 13.4557C55.112 13.6095 55.095 13.7646 55.0857 13.9203C55.0675 14.1099 55.0565 14.3665 55.0456 14.6935C55.0347 15.0208 55.0456 15.437 55.0456 15.9575V23.0469C55.2969 22.8573 55.5628 22.6528 55.8397 22.4298C56.1164 22.2068 56.3896 21.9836 56.6483 21.7569C56.9069 21.5302 57.1619 21.3293 57.4059 21.1398C57.65 20.9502 57.8577 20.7867 58.0252 20.6491C58.5275 20.2059 59.0939 19.8448 59.7044 19.5784C60.0834 19.432 60.4786 19.3334 60.8809 19.2848C61.2084 19.2406 61.5415 19.275 61.8535 19.3851C62.0639 19.4718 62.2567 19.5979 62.4218 19.7568C62.5846 19.9152 62.7092 20.1099 62.7861 20.3256C62.6512 20.4297 62.4473 20.597 62.1668 20.8275L61.1942 21.6417L59.9813 22.6602C59.5442 23.032 59.0998 23.4037 58.6444 23.7755L61.4273 27.9764L63.1393 30.5266Z" fill="#255988"/>
<path d="M64.2799 25.1621C64.2459 24.1955 64.4135 23.2324 64.7717 22.3368C65.0556 21.6683 65.4943 21.0802 66.0502 20.623C66.5663 20.2129 67.1664 19.9269 67.806 19.7865C68.4398 19.6427 69.0871 19.5692 69.7365 19.5672H70.975C71.0578 19.8949 71.0752 20.2362 71.026 20.571C70.9839 20.8471 70.8651 21.1052 70.6836 21.3145C70.4361 21.5807 70.0958 21.7369 69.7365 21.7494C69.4495 21.7864 69.1665 21.8511 68.8914 21.9427C68.6076 22.043 68.3516 22.2113 68.1447 22.4334C67.8973 22.7216 67.7123 23.0598 67.6019 23.4261C67.442 23.9872 67.3695 24.5705 67.387 25.1547V28.8945C67.387 29.4076 67.387 29.8276 67.387 30.1436C67.387 30.4596 67.4089 30.7162 67.4234 30.8871C67.438 31.0581 67.4562 31.2588 67.4745 31.3482C66.634 31.4018 65.7994 31.1719 65.0994 30.6939C64.5459 30.2551 64.2654 29.5191 64.2654 28.4894L64.2799 25.1621Z" fill="#255988"/>
<path d="M88.1781 29.9317C88.2473 30.1029 88.3129 30.2664 88.3821 30.4225C88.4513 30.5786 88.506 30.7236 88.557 30.8612C88.6249 31.0126 88.6844 31.1677 88.7354 31.3258C88.2677 31.4595 87.7797 31.5024 87.2966 31.4522C86.8841 31.4091 86.4843 31.2827 86.12 31.0805C85.6864 30.8315 85.3582 30.4277 85.1985 29.9466C85.0964 29.6988 84.9107 29.2267 84.6411 28.5302C84.3717 27.8338 84.0523 27.0086 83.6831 26.0544H76.5073C76.1358 26.9986 75.8152 27.8239 75.5457 28.5302C75.2761 29.2328 75.094 29.705 74.992 29.9466C74.8184 30.4241 74.4875 30.825 74.0559 31.0805C73.6974 31.2839 73.3019 31.4104 72.8939 31.4522C72.4108 31.5025 71.9227 31.4596 71.455 31.3258C71.506 31.1697 71.5643 31.0136 71.6299 30.8612C71.6954 30.7087 71.7355 30.5749 71.7975 30.4225C71.8594 30.2701 71.9249 30.1029 72.0087 29.9317L72.628 28.3332C72.9231 27.5897 73.2654 26.7087 73.6516 25.7309L74.8791 22.6342C75.3089 21.5537 75.7132 20.5226 76.0921 19.5413C76.4709 18.5598 76.8109 17.6924 77.112 16.9389C77.4179 16.1954 77.6255 15.6638 77.7458 15.3516C77.8925 14.9444 78.0921 14.5594 78.3395 14.2065C78.5137 13.9579 78.7223 13.7363 78.9587 13.5486C79.1334 13.407 79.3358 13.3054 79.5525 13.2512C79.912 13.1657 80.2858 13.1657 80.6452 13.2512C80.8616 13.3062 81.0639 13.4077 81.239 13.5486C81.4745 13.7373 81.683 13.9588 81.8583 14.2065C82.1056 14.5594 82.3053 14.9444 82.452 15.3516C82.5686 15.6638 82.7762 16.1917 83.0713 16.9389C83.3662 17.6862 83.705 18.5486 84.0947 19.5413C84.4845 20.5338 84.8888 21.5525 85.3186 22.6342C85.7485 23.7161 86.1565 24.7495 86.5426 25.7309C86.9287 26.7124 87.2711 27.5897 87.5662 28.3332C87.8613 29.0767 88.0616 29.6232 88.1781 29.9317ZM82.7142 23.5115C82.3792 22.6528 82.0513 21.8127 81.7307 20.9985C81.4102 20.1844 81.1298 19.4483 80.8967 18.794C80.5931 18.0357 80.3235 17.3131 80.088 16.6267C79.8184 17.3131 79.5404 18.0357 79.2538 18.794C79.0025 19.4483 78.722 20.1807 78.4196 20.9985C78.1174 21.8164 77.7968 22.6528 77.4616 23.5115H82.7142Z" fill="#255988"/>
<path d="M100.155 34.9838C100.155 35.5006 100.155 35.9207 100.155 36.2478C100.155 36.575 100.177 36.8315 100.195 37.0211C100.213 37.2106 100.228 37.3929 100.242 37.4858C99.2007 37.4858 98.403 37.2627 97.8567 36.8166C97.3103 36.3705 97.0371 35.6307 97.0371 34.5861L97.0626 30.9764C96.6689 31.1864 96.2535 31.3509 95.8241 31.467C95.3872 31.5887 94.9364 31.6501 94.4836 31.6493C93.6796 31.6612 92.8827 31.4937 92.1488 31.1585C91.4679 30.846 90.8606 30.3885 90.3675 29.8165C89.8666 29.2514 89.4803 28.5906 89.231 27.8721C88.9573 27.0988 88.8203 26.2819 88.8267 25.4595C88.8198 24.635 88.9695 23.8169 89.2674 23.0506C89.5455 22.3312 89.9518 21.6707 90.4658 21.1025C90.9835 20.5408 91.6017 20.0852 92.2871 19.7605C92.9801 19.4345 93.7351 19.2683 94.4982 19.2735C95.2983 19.2614 96.0914 19.4276 96.8222 19.7605C97.4985 20.0751 98.1018 20.5325 98.5925 21.1025C99.0909 21.671 99.4768 22.3324 99.7289 23.0506C100.003 23.8226 100.14 24.6383 100.133 25.4595L100.155 34.9838ZM94.4945 29.4411C94.7581 29.4319 95.0188 29.3805 95.2668 29.2885C95.5892 29.1659 95.8788 28.9672 96.1119 28.7087C96.4189 28.3573 96.6508 27.9446 96.793 27.4967C96.9985 26.8424 97.0933 26.1573 97.0735 25.4707C97.0937 24.7889 96.9989 24.1086 96.793 23.4594C96.6501 23.0163 96.4181 22.6087 96.1119 22.2625C95.8808 22.0016 95.5906 21.8026 95.2668 21.6825C95.0194 21.5879 94.7585 21.535 94.4945 21.5264C94.227 21.5356 93.9626 21.5883 93.7114 21.6825C93.3822 21.8003 93.0869 21.9995 92.8518 22.2625C92.5454 22.6087 92.3134 23.0163 92.1705 23.4594C91.966 24.1087 91.8724 24.789 91.8938 25.4707C91.8729 26.1572 91.9665 26.8423 92.1705 27.4967C92.3127 27.9446 92.5447 28.3573 92.8518 28.7087C93.0889 28.9691 93.3837 29.168 93.7114 29.2885C93.9633 29.38 94.2274 29.4314 94.4945 29.4411Z" fill="#255988"/>
<path d="M113.316 26.0655C113.352 27.0285 113.18 27.9877 112.814 28.8759C112.519 29.5408 112.072 30.1235 111.51 30.5748C110.984 30.9876 110.376 31.2782 109.728 31.4262C108.45 31.7384 107.117 31.7384 105.838 31.4262C105.191 31.2766 104.584 30.9863 104.057 30.5748C103.499 30.1239 103.058 29.5406 102.771 28.8759C102.409 27.9867 102.24 27.0279 102.276 26.0655L102.301 22.4297C102.301 21.3963 102.574 20.6639 103.124 20.2252C103.674 19.7865 104.465 19.5672 105.51 19.5672C105.492 19.6713 105.478 19.8238 105.459 20.0319C105.441 20.2401 105.43 20.478 105.423 20.8052C105.416 21.1323 105.423 21.5487 105.423 22.0692L105.448 26.0655C105.432 26.6525 105.501 27.2388 105.652 27.8053C105.753 28.1833 105.939 28.532 106.195 28.8239C106.401 29.0522 106.663 29.2215 106.953 29.3147C107.505 29.4831 108.094 29.4831 108.647 29.3147C108.936 29.2205 109.197 29.0514 109.404 28.8239C109.659 28.5311 109.845 28.1826 109.947 27.8053C110.097 27.2385 110.164 26.6523 110.147 26.0655L110.173 22.4297C110.173 21.3963 110.453 20.6639 111.007 20.2252C111.561 19.7865 112.362 19.5672 113.407 19.5672C113.407 19.6713 113.375 19.8238 113.356 20.0319C113.338 20.2401 113.327 20.478 113.32 20.8052C113.313 21.1323 113.32 21.5487 113.32 22.0692L113.316 26.0655Z" fill="#255988"/>
<path d="M116.776 24.8017C117.251 24.4992 117.771 24.277 118.316 24.1437C118.904 23.9962 119.507 23.9226 120.112 23.9243C120.959 23.9159 121.802 24.0412 122.611 24.2961C122.572 23.8097 122.462 23.3323 122.283 22.8797C122.1 22.3866 121.751 21.9756 121.3 21.7198C121.128 21.6305 120.945 21.5644 120.757 21.5228C120.536 21.4789 120.312 21.4578 120.087 21.4596H119.81C119.564 21.477 119.321 21.5155 119.081 21.5748C118.848 21.638 118.611 21.7086 118.375 21.7941C118.143 21.8808 117.907 21.9541 117.668 22.0136C117.446 22.0742 117.217 22.1054 116.987 22.1065C116.75 22.1065 116.516 22.0533 116.302 21.9504C116.077 21.8041 115.894 21.5986 115.774 21.3555L115.723 21.2552L115.774 21.177C116.282 20.6257 116.886 20.1757 117.555 19.85C118.256 19.5084 119.016 19.3114 119.792 19.27C119.862 19.2534 119.934 19.2446 120.007 19.244H120.218C120.947 19.2345 121.67 19.3788 122.341 19.6677C122.968 19.9425 123.535 20.3418 124.01 20.8425C124.969 21.9058 125.466 23.306 125.5 25.0433V25.2515C125.5 27.0384 125.053 28.4907 124.159 29.6084C123.724 30.1567 123.188 30.6125 122.582 30.9505C121.944 31.3004 121.244 31.5189 120.524 31.5936C120.422 31.6096 120.32 31.6183 120.218 31.6196H119.89C119.518 31.6182 119.147 31.5885 118.779 31.5304C117.991 31.3777 117.245 31.0516 116.593 30.5751C116.262 30.3125 115.987 29.9836 115.785 29.6084C115.45 29.0586 115.274 28.4232 115.278 27.7758V27.6232C115.257 27.0369 115.397 26.456 115.683 25.9467C115.948 25.4781 116.324 25.0845 116.776 24.8017ZM122.006 26.0396C121.788 26.0061 121.54 25.969 121.26 25.9355C120.979 25.9011 120.697 25.8837 120.414 25.8835C120.187 25.8836 119.959 25.8973 119.733 25.9244C119.525 25.9447 119.321 25.9922 119.125 26.0656C118.749 26.1745 118.414 26.3991 118.167 26.7088C118.082 26.8138 118.013 26.9316 117.963 27.0583C117.91 27.1939 117.877 27.3366 117.865 27.482C117.844 27.5582 117.835 27.6373 117.839 27.7163C117.842 27.9032 117.866 28.0892 117.912 28.2701C117.968 28.4774 118.073 28.6677 118.218 28.824C118.38 29.0153 118.583 29.1655 118.812 29.2628C119.144 29.3951 119.5 29.4559 119.857 29.4412C119.96 29.4449 120.062 29.4361 120.163 29.4152C120.607 29.4093 121.039 29.2654 121.402 29.0025C121.564 28.9053 121.708 28.7794 121.828 28.6308C121.948 28.4836 122.05 28.3225 122.134 28.1512C122.307 27.8387 122.43 27.4998 122.498 27.1475C122.561 26.8329 122.594 26.513 122.596 26.1921C122.585 26.1964 122.572 26.1964 122.56 26.1921C122.548 26.1877 122.535 26.1877 122.524 26.1921L122.294 26.1437L122.006 26.0396Z" fill="#255988"/>
<defs>
<linearGradient id="paint0_linear_2027_3163" x1="62.9962" y1="37.5083" x2="62.9962" y2="5.57606" gradientUnits="userSpaceOnUse">
<stop stop-color="#67CDF5"/>
<stop offset="0.13" stop-color="#4EC0ED"/>
<stop offset="0.37" stop-color="#26AAE1"/>
<stop offset="0.46" stop-color="#27A3DC"/>
<stop offset="0.6" stop-color="#288ECD"/>
<stop offset="0.77" stop-color="#2B6DB6"/>
<stop offset="0.97" stop-color="#2E3F95"/>
<stop offset="1" stop-color="#2F368F"/>
</linearGradient>
<linearGradient id="paint1_linear_2027_3163" x1="62.9942" y1="5.58228" x2="62.9942" y2="37.4851" gradientUnits="userSpaceOnUse">
<stop stop-color="#67CDF5"/>
<stop offset="0.17" stop-color="#4EC0ED"/>
<stop offset="0.46" stop-color="#26AAE1"/>
<stop offset="0.54" stop-color="#27A3DC"/>
<stop offset="0.66" stop-color="#288ECD"/>
<stop offset="0.81" stop-color="#2B6DB6"/>
<stop offset="0.97" stop-color="#2E3F95"/>
<stop offset="1" stop-color="#2F368F"/>
</linearGradient>
</defs>
</svg>
