<svg width="86" height="13" viewBox="0 0 86 13" fill="none" xmlns="http://www.w3.org/2000/svg">
<path d="M6.07031 1.3418C6.16406 1.1543 6.28125 1.03711 6.46875 0.966797C6.65625 0.919922 6.82031 0.919922 7.00781 0.966797C7.19531 1.03711 7.33594 1.1543 7.42969 1.3418L8.95312 4.43555L12.375 4.92773C12.5625 4.97461 12.7266 5.06836 12.8438 5.20898C12.9609 5.37305 13.0078 5.53711 13.0078 5.72461C13.0078 5.91211 12.9375 6.07617 12.7969 6.2168L10.3125 8.63086L10.8984 12.0527C10.9219 12.2402 10.875 12.4277 10.7812 12.5918C10.6875 12.7559 10.5469 12.8496 10.3594 12.8965C10.1719 12.9434 9.98438 12.9199 9.82031 12.8262L6.75 11.2324L3.67969 12.8262C3.49219 12.9199 3.32812 12.9434 3.14062 12.8965C2.95312 12.8496 2.78906 12.7559 2.69531 12.5918C2.60156 12.4277 2.55469 12.2402 2.60156 12.0527L3.1875 8.63086L0.703125 6.2168C0.5625 6.07617 0.46875 5.91211 0.46875 5.72461C0.46875 5.53711 0.515625 5.37305 0.632812 5.20898C0.75 5.06836 0.914062 4.97461 1.125 4.92773L4.54688 4.43555L6.07031 1.3418Z" fill="#FFD800"/>
<path d="M24.0703 1.3418C24.1641 1.1543 24.2812 1.03711 24.4688 0.966797C24.6562 0.919922 24.8203 0.919922 25.0078 0.966797C25.1953 1.03711 25.3359 1.1543 25.4297 1.3418L26.9531 4.43555L30.375 4.92773C30.5625 4.97461 30.7266 5.06836 30.8438 5.20898C30.9609 5.37305 31.0078 5.53711 31.0078 5.72461C31.0078 5.91211 30.9375 6.07617 30.7969 6.2168L28.3125 8.63086L28.8984 12.0527C28.9219 12.2402 28.875 12.4277 28.7812 12.5918C28.6875 12.7559 28.5469 12.8496 28.3594 12.8965C28.1719 12.9434 27.9844 12.9199 27.8203 12.8262L24.75 11.2324L21.6797 12.8262C21.4922 12.9199 21.3281 12.9434 21.1406 12.8965C20.9531 12.8496 20.7891 12.7559 20.6953 12.5918C20.6016 12.4277 20.5547 12.2402 20.6016 12.0527L21.1875 8.63086L18.7031 6.2168C18.5625 6.07617 18.4688 5.91211 18.4688 5.72461C18.4688 5.53711 18.5156 5.37305 18.6328 5.20898C18.75 5.06836 18.9141 4.97461 19.125 4.92773L22.5469 4.43555L24.0703 1.3418Z" fill="#FFD800"/>
<path d="M42.0703 1.3418C42.1641 1.1543 42.2812 1.03711 42.4688 0.966797C42.6562 0.919922 42.8203 0.919922 43.0078 0.966797C43.1953 1.03711 43.3359 1.1543 43.4297 1.3418L44.9531 4.43555L48.375 4.92773C48.5625 4.97461 48.7266 5.06836 48.8438 5.20898C48.9609 5.37305 49.0078 5.53711 49.0078 5.72461C49.0078 5.91211 48.9375 6.07617 48.7969 6.2168L46.3125 8.63086L46.8984 12.0527C46.9219 12.2402 46.875 12.4277 46.7812 12.5918C46.6875 12.7559 46.5469 12.8496 46.3594 12.8965C46.1719 12.9434 45.9844 12.9199 45.8203 12.8262L42.75 11.2324L39.6797 12.8262C39.4922 12.9199 39.3281 12.9434 39.1406 12.8965C38.9531 12.8496 38.7891 12.7559 38.6953 12.5918C38.6016 12.4277 38.5547 12.2402 38.6016 12.0527L39.1875 8.63086L36.7031 6.2168C36.5625 6.07617 36.4688 5.91211 36.4688 5.72461C36.4688 5.53711 36.5156 5.37305 36.6328 5.20898C36.75 5.06836 36.9141 4.97461 37.125 4.92773L40.5469 4.43555L42.0703 1.3418Z" fill="#FFD800"/>
<path d="M60.0703 1.3418C60.1641 1.1543 60.2812 1.03711 60.4688 0.966797C60.6562 0.919922 60.8203 0.919922 61.0078 0.966797C61.1953 1.03711 61.3359 1.1543 61.4297 1.3418L62.9531 4.43555L66.375 4.92773C66.5625 4.97461 66.7266 5.06836 66.8438 5.20898C66.9609 5.37305 67.0078 5.53711 67.0078 5.72461C67.0078 5.91211 66.9375 6.07617 66.7969 6.2168L64.3125 8.63086L64.8984 12.0527C64.9219 12.2402 64.875 12.4277 64.7812 12.5918C64.6875 12.7559 64.5469 12.8496 64.3594 12.8965C64.1719 12.9434 63.9844 12.9199 63.8203 12.8262L60.75 11.2324L57.6797 12.8262C57.4922 12.9199 57.3281 12.9434 57.1406 12.8965C56.9531 12.8496 56.7891 12.7559 56.6953 12.5918C56.6016 12.4277 56.5547 12.2402 56.6016 12.0527L57.1875 8.63086L54.7031 6.2168C54.5625 6.07617 54.4688 5.91211 54.4688 5.72461C54.4688 5.53711 54.5156 5.37305 54.6328 5.20898C54.75 5.06836 54.9141 4.97461 55.125 4.92773L58.5469 4.43555L60.0703 1.3418Z" fill="#FFD800"/>
<path d="M78.0703 1.3418C78.1641 1.1543 78.2812 1.03711 78.4688 0.966797C78.6562 0.919922 78.8203 0.919922 79.0078 0.966797C79.1953 1.03711 79.3359 1.1543 79.4297 1.3418L80.9531 4.43555L84.375 4.92773C84.5625 4.97461 84.7266 5.06836 84.8438 5.20898C84.9609 5.37305 85.0078 5.53711 85.0078 5.72461C85.0078 5.91211 84.9375 6.07617 84.7969 6.2168L82.3125 8.63086L82.8984 12.0527C82.9219 12.2402 82.875 12.4277 82.7812 12.5918C82.6875 12.7559 82.5469 12.8496 82.3594 12.8965C82.1719 12.9434 81.9844 12.9199 81.8203 12.8262L78.75 11.2324L75.6797 12.8262C75.4922 12.9199 75.3281 12.9434 75.1406 12.8965C74.9531 12.8496 74.7891 12.7559 74.6953 12.5918C74.6016 12.4277 74.5547 12.2402 74.6016 12.0527L75.1875 8.63086L72.7031 6.2168C72.5625 6.07617 72.4688 5.91211 72.4688 5.72461C72.4688 5.53711 72.5156 5.37305 72.6328 5.20898C72.75 5.06836 72.9141 4.97461 73.125 4.92773L76.5469 4.43555L78.0703 1.3418Z" fill="#FFD800"/>
</svg>
