<svg width="16" height="17" viewBox="0 0 16 17" fill="none" xmlns="http://www.w3.org/2000/svg">
<path d="M6.66669 12.0987C6.66669 13.6329 5.47279 14.8765 4.00003 14.8765C2.52728 14.8765 1.33337 13.6329 1.33337 12.0987C1.33337 11.1389 2.37732 9.85772 3.15886 9.03311C3.62151 8.54495 4.37855 8.54495 4.84121 9.03311C5.62274 9.85772 6.66669 11.1389 6.66669 12.0987Z" fill="white"/>
<path opacity="0.7" d="M14.6666 12.0987C14.6666 13.6329 13.4727 14.8765 11.9999 14.8765C10.5272 14.8765 9.33325 13.6329 9.33325 12.0987C9.33325 11.1389 10.3772 9.85772 11.1587 9.03311C11.6214 8.54495 12.3784 8.54495 12.8411 9.03311C13.6226 9.85772 14.6666 11.1389 14.6666 12.0987Z" fill="white"/>
<path opacity="0.4" d="M10.6667 5.43175C10.6667 6.96587 9.47279 8.20952 8.00003 8.20952C6.52728 8.20952 5.33337 6.96587 5.33337 5.43175C5.33337 4.47187 6.37732 3.19073 7.15885 2.36612C7.62151 1.87796 8.37855 1.87796 8.84121 2.36612C9.62274 3.19073 10.6667 4.47187 10.6667 5.43175Z" fill="white"/>
</svg>
